<svg width="124" height="146" viewBox="0 0 124 146" fill="none" xmlns="http://www.w3.org/2000/svg">
<g opacity="0.8">
<path d="M49.9043 85.6211H31.4922V57.2914C31.4922 54.8209 33.5531 52.8184 36.0951 52.8184H45.3012C47.8434 52.8184 49.9041 54.8211 49.9041 57.2914V85.6211H49.9043Z" fill="#FFC269"/>
<path d="M49.9043 57.2914C49.9043 56.1869 49.4769 55.1892 48.7943 54.4089C45.0799 56.0126 41.6216 58.2337 38.6322 60.9263C37.6597 61.8024 36.0767 61.1 36.0798 59.8116L36.0951 53.0923V52.8184C33.5529 52.8184 31.4922 54.8211 31.4922 57.2914V85.6211H49.9043V57.2914Z" fill="#FFA95F"/>
<path d="M77.5225 85.6211H95.9346V57.2914C95.9346 54.8209 93.8737 52.8184 91.3316 52.8184H82.1256C79.5833 52.8184 77.5227 54.8211 77.5227 57.2914V85.6211H77.5225Z" fill="#EAD1FF"/>
<path d="M95.9344 69.8161C92.9638 64.5888 88.7171 60.1663 83.4976 56.9278C82.6384 56.3947 82.1254 55.4699 82.1254 54.4543V52.8184C79.5831 52.8184 77.5225 54.8211 77.5225 57.2914V85.6211H95.9346V69.8161H95.9344Z" fill="#D6BDEF"/>
<path d="M63.7137 25.9795C59.4768 25.9795 56.042 29.3174 56.042 33.4348V45.3631H71.3853V33.4348C71.3855 29.3174 67.9507 25.9795 63.7137 25.9795Z" fill="#B57F5F"/>
<path d="M66.7817 42.3818H60.6443C57.2547 42.3818 54.5068 45.0521 54.5068 48.3461V58.7834H72.9189V48.3461C72.9191 45.0521 70.1713 42.3818 66.7817 42.3818Z" fill="#CCF49F"/>
<path d="M72.9197 52.4747C69.9091 51.7206 66.816 51.3279 63.7137 51.3279C62.7262 51.3279 61.7204 51.3687 60.7247 51.4488C60.6831 51.4522 60.6418 51.4539 60.6008 51.4539C59.7791 51.4539 59.1107 50.7855 59.1107 49.964V43.209V42.5928C56.4684 43.2579 54.5078 45.5702 54.5078 48.3461V58.7834H72.9199V52.4747H72.9197Z" fill="#B3E59F"/>
<path d="M63.7133 37.9078C61.171 37.9078 59.1104 35.9051 59.1104 33.4348V31.9437C59.1104 29.4732 61.1712 27.4707 63.7133 27.4707C66.2555 27.4707 68.3162 29.4734 68.3162 31.9437V33.4348C68.3162 35.9051 66.2555 37.9078 63.7133 37.9078Z" fill="#FFE09F"/>
<path d="M63.7129 25.9795C61.3222 25.9795 59.2137 27.0645 57.8066 28.7303C61.5077 31.6687 66.2327 33.4348 71.3846 33.4348C71.3846 29.3174 67.9499 25.9795 63.7129 25.9795Z" fill="#C38C66"/>
<path d="M63.7133 118.425C81.5086 118.425 95.9344 104.406 95.9344 87.1127C95.9344 69.8196 81.5086 55.8008 63.7133 55.8008C45.9181 55.8008 31.4922 69.8196 31.4922 87.1127C31.4922 104.406 45.9181 118.425 63.7133 118.425Z" fill="#A4CCFF"/>
<path d="M68.3162 112.46C50.521 112.46 36.0951 98.4412 36.0951 81.1481C36.0951 75.4402 37.6922 70.1053 40.4379 65.4971C34.908 71.1187 31.4922 78.7211 31.4922 87.1122C31.4922 104.405 45.9181 118.424 63.7133 118.424C75.6347 118.424 86.0184 112.116 91.5914 102.764C85.7248 108.728 77.4768 112.46 68.3162 112.46Z" fill="#8BB3EA"/>
<path d="M40.698 48.3463C37.3084 48.3463 34.5605 45.676 34.5605 42.3822V39.4C34.5605 37.7531 35.9345 36.418 37.6292 36.418H46.8353V42.3822C46.8355 45.676 44.0876 48.3463 40.698 48.3463Z" fill="#D19A6E"/>
<path d="M46.8352 36.418H37.6292C35.9345 36.418 34.5605 37.7531 34.5605 39.4V42.382L46.8352 39.4V36.418Z" fill="#6E4848"/>
<path d="M86.7282 48.3471C83.3386 48.3471 80.5908 45.6768 80.5908 42.383V40.892C80.5908 38.4215 82.6517 36.4189 85.1937 36.4189H92.8655V42.3832C92.8655 45.6768 90.1179 48.3471 86.7282 48.3471Z" fill="#F6D190"/>
<path d="M85.1947 36.418H92.8665V40.891H80.5918C80.5916 38.4207 82.6525 36.418 85.1947 36.418Z" fill="#9F6E50"/>
<path d="M95.9344 69.1233C96.7272 69.1233 97.37 68.4987 97.37 67.7282V57.2909C97.37 54.0552 94.6612 51.4228 91.3315 51.4228H82.1254C78.9986 51.4228 76.4196 53.7444 76.117 56.7069C75.5374 56.4827 74.9498 56.2746 74.3551 56.0813V48.3445C74.3551 46.6792 73.7822 45.1418 72.8189 43.9073C72.8193 43.8952 72.8208 43.8835 72.8208 43.8714V33.4343C72.8206 28.5543 68.7351 24.584 63.7133 24.584C58.6916 24.584 54.606 28.5543 54.606 33.4343V43.8716C54.606 43.8837 54.6076 43.8956 54.6079 43.9075C53.6446 45.142 53.0717 46.6793 53.0717 48.3446V56.0815C52.477 56.2746 51.8894 56.4829 51.3098 56.7071C51.0072 53.7446 48.4282 51.423 45.3014 51.423H36.0953C32.7656 51.423 30.0568 54.0554 30.0568 57.2911V67.7284C30.0568 68.4988 30.6996 69.1235 31.4924 69.1235C32.2852 69.1235 32.9279 68.4988 32.9279 67.7284V57.2911C32.9279 55.5938 34.3487 54.2131 36.0953 54.2131H45.3014C47.048 54.2131 48.4688 55.5938 48.4688 57.2911V57.9572C37.5508 63.3703 30.0566 74.4064 30.0566 87.1118C30.0566 105.146 45.155 119.819 63.7133 119.819C82.2717 119.819 97.37 105.146 97.37 87.1116C97.37 74.4062 89.8759 63.3701 78.9579 57.957V57.2909C78.9579 55.5936 80.3787 54.2129 82.1253 54.2129H91.3313C93.0779 54.2129 94.4987 55.5936 94.4987 57.2909V67.7282C94.4989 68.4987 95.1416 69.1233 95.9344 69.1233ZM52.9278 59.0915C51.4386 60.5114 50.0561 62.2381 48.812 64.2531C48.4988 64.7605 48.1983 65.2826 47.9085 65.8165C46.7798 65.1606 45.6917 64.4328 44.6521 63.6356C47.1314 61.7305 49.9187 60.1889 52.9278 59.0915ZM51.274 65.6887C54.3051 60.7796 58.1685 57.8491 62.2778 57.2935V70.0274C58.1533 69.8399 54.1273 68.8469 50.4385 67.1351C50.7065 66.6408 50.9844 66.1576 51.274 65.6887ZM62.2778 72.8203V85.7166H45.8362C45.9971 79.8758 47.1666 74.3441 49.2097 69.6562C53.2798 71.5437 57.7254 72.6311 62.2778 72.8203ZM65.1489 57.2954C68.691 57.7861 72.1176 60.0777 74.9261 63.8731C75.6674 64.8749 76.353 65.9707 76.9847 67.1391C73.2986 68.8498 69.2758 69.8405 65.1489 70.0276V57.2954ZM77.257 62.2442C76.3831 61.0631 75.45 60.0075 74.4703 59.0809C77.4909 60.179 80.2883 61.7251 82.7757 63.6365C81.7348 64.4346 80.6453 65.1621 79.516 65.8185C78.825 64.5408 78.0707 63.3439 77.257 62.2442ZM57.4771 33.4343C57.4771 32.3289 57.7847 31.2924 58.3191 30.3992C59.9979 31.8847 63.6402 34.3037 69.9493 34.8777V41.6626C68.9848 41.2292 67.9124 40.9854 66.7819 40.9854H60.6447C59.5142 40.9854 58.4416 41.229 57.4773 41.6626V33.4343H57.4771ZM69.7857 32.0593C64.5036 31.4924 61.5655 29.5081 60.2847 28.3759C61.2691 27.7435 62.4474 27.3741 63.7133 27.3741C66.6652 27.3741 69.1429 29.3783 69.7857 32.0593ZM55.9428 48.3446C55.9428 45.8252 58.0521 43.7756 60.6445 43.7756H66.7817C69.3743 43.7756 71.4835 45.8254 71.4835 48.3446V55.2863C68.9881 54.711 66.3869 54.4049 63.7129 54.4049C61.039 54.4049 58.4378 54.711 55.9424 55.2863V48.3446H55.9428ZM42.4504 65.4969C43.7843 66.5542 45.1946 67.505 46.6667 68.3446C44.4152 73.4243 43.1301 79.4136 42.9645 85.7166H32.9624C33.3391 77.7835 36.909 70.647 42.4504 65.4969ZM32.9624 88.5067H62.2778V101.403C57.7221 101.592 53.2817 102.675 49.2154 104.561C47.711 101.094 46.6579 97.1232 46.157 92.9146C46.0659 92.1492 45.3531 91.5986 44.566 91.6892C43.7784 91.7777 43.2139 92.4699 43.305 93.2353C43.8475 97.7915 45.0064 102.105 46.6717 105.875C45.1986 106.715 43.7875 107.668 42.4513 108.727C36.9092 103.577 33.3391 96.4402 32.9624 88.5067ZM52.5006 110.35C51.7592 109.348 51.0734 108.252 50.4418 107.084C54.1275 105.373 58.1497 104.383 62.2778 104.196V116.928C58.7356 116.437 55.3091 114.146 52.5006 110.35ZM65.1489 116.93V104.196C69.2788 104.383 73.3026 105.374 76.9894 107.086C76.7211 107.581 76.4428 108.065 76.1526 108.535C73.1217 113.444 69.2582 116.374 65.1489 116.93ZM65.1489 101.403V88.5068H81.5905C81.4295 94.3465 80.2604 99.8772 78.2183 104.564C74.1503 102.677 69.7074 101.592 65.1489 101.403ZM44.6512 110.587C45.692 109.789 46.781 109.061 47.9101 108.404C48.6012 109.682 49.3556 110.879 50.1694 111.979C51.0434 113.16 51.9765 114.216 52.9561 115.143C49.9357 114.044 47.1385 112.499 44.6512 110.587ZM78.6147 109.97C78.9282 109.463 79.2289 108.94 79.5189 108.405C80.6472 109.062 81.7354 109.79 82.7755 110.587C80.296 112.493 77.5083 114.035 74.4989 115.132C75.9878 113.712 77.3703 111.985 78.6147 109.97ZM84.9755 108.727C83.6408 107.669 82.2315 106.717 80.7603 105.878C83.0115 100.798 84.2966 94.8091 84.4619 88.5067H94.4643C94.0876 96.4402 90.5175 103.577 84.9755 108.727ZM94.4643 85.7166H65.1489V72.8203C69.703 72.6315 74.1444 71.5475 78.2112 69.6619C79.7156 73.1289 80.7688 77.0999 81.2699 81.3086C81.361 82.0741 82.0736 82.6224 82.8608 82.534C83.6485 82.4455 84.2129 81.7534 84.1218 80.988C83.5794 76.432 82.4204 72.1187 80.7554 68.3487C82.2286 67.5082 83.6399 66.5553 84.9759 65.4965C90.5175 70.6466 94.0876 77.7833 94.4643 85.7166Z" fill="black"/>
<path d="M86.7282 49.7399C90.904 49.7399 94.301 46.4385 94.301 42.3808V36.4165C94.301 35.6461 93.6583 35.0215 92.8655 35.0215H85.1937C81.864 35.0215 79.1553 37.6538 79.1553 40.8896V42.3806C79.1553 46.4385 82.5525 49.7399 86.7282 49.7399ZM85.1939 37.8116H91.4301V42.3806C91.4301 44.9 89.3208 46.9496 86.7284 46.9496C84.1358 46.9496 82.0267 44.8999 82.0267 42.3806V42.2846H88.2629C89.0557 42.2846 89.6985 41.66 89.6985 40.8896C89.6985 40.1192 89.0557 39.4945 88.2629 39.4945H82.3743C82.8986 38.4972 83.9643 37.8116 85.1939 37.8116Z" fill="black"/>
<path d="M67.5015 38.3171C68.1877 37.9313 68.4224 37.0779 68.0254 36.4109C67.6284 35.7441 66.7502 35.516 66.0639 35.9018C65.3535 36.3012 64.5408 36.5123 63.714 36.5123C62.8863 36.5123 62.073 36.3008 61.3622 35.9009C60.6763 35.5149 59.7978 35.7422 59.4004 36.4092C59.0033 37.0759 59.2374 37.9294 59.9235 38.3156C61.071 38.9612 62.3816 39.3025 63.7138 39.3025C65.045 39.3023 66.3546 38.9616 67.5015 38.3171Z" fill="black"/>
<path d="M33.1267 42.4468C33.1637 46.4742 36.5451 49.7399 40.698 49.7399C44.8737 49.7399 48.2708 46.4385 48.2708 42.3808V36.4165C48.2708 35.6461 47.6281 35.0215 46.8353 35.0215H37.6292C35.1455 35.0215 33.125 36.9851 33.125 39.3986V42.3806C33.125 42.3949 33.126 42.4091 33.1261 42.4232C33.1263 42.4312 33.1263 42.439 33.1267 42.4468ZM40.698 46.9498C38.4802 46.9498 36.6174 45.4495 36.1247 43.4386L45.3999 41.1853V42.3808C45.3999 44.9 43.2906 46.9498 40.698 46.9498ZM37.6294 37.8116H45.3999V38.3095L35.9963 40.594V39.3986C35.9961 38.5234 36.7288 37.8116 37.6294 37.8116Z" fill="black"/>
</g>
<g opacity="0.6">
<path fill-rule="evenodd" clip-rule="evenodd" d="M28.4669 6.19074C28.914 5.73895 29.6192 5.71918 30.0421 6.14658L34.5928 10.7455L39.1435 6.14646C39.5665 5.71905 40.2717 5.73882 40.7188 6.19061C41.1658 6.6424 41.1854 7.35512 40.7624 7.78253L36.2117 12.3816L40.7627 16.9809C41.1856 17.4083 41.166 18.121 40.719 18.5728C40.272 19.0246 39.5667 19.0444 39.1438 18.617L34.5928 14.0177L30.0419 18.6168C29.619 19.0442 28.9137 19.0245 28.4667 18.5727C28.0196 18.1209 28.0001 17.4082 28.423 16.9808L32.9739 12.3816L28.4232 7.78265C28.0003 7.35525 28.0199 6.64253 28.4669 6.19074Z" fill="#1FC4CB"/>
<path fill-rule="evenodd" clip-rule="evenodd" d="M67.16 135.606C67.4029 135.361 67.7862 135.35 68.016 135.582L70.4893 138.082L72.9623 135.583C73.1921 135.35 73.5753 135.361 73.8183 135.607C74.0612 135.852 74.0718 136.24 73.842 136.472L71.369 138.971L73.8417 141.47C74.0715 141.702 74.0609 142.09 73.8179 142.335C73.575 142.581 73.1918 142.591 72.962 142.359L70.4893 139.86L68.0163 142.359C67.7865 142.592 67.4033 142.581 67.1603 142.335C66.9174 142.09 66.9068 141.702 67.1366 141.47L69.6095 138.971L67.1362 136.472C66.9064 136.239 66.9171 135.852 67.16 135.606Z" fill="#1FC4CB"/>
<path fill-rule="evenodd" clip-rule="evenodd" d="M115.05 51.6074C115.682 51.6074 116.194 52.0974 116.194 52.7019V59.2056H122.63C123.228 59.2056 123.713 59.7235 123.713 60.3625C123.713 61.0014 123.228 61.5193 122.63 61.5193H116.194V68.0239C116.194 68.6283 115.682 69.1183 115.05 69.1183C114.417 69.1183 113.905 68.6283 113.905 68.0239V61.5193H107.469C106.871 61.5193 106.386 61.0014 106.386 60.3625C106.386 59.7235 106.871 59.2056 107.469 59.2056H113.905V52.7019C113.905 52.0974 114.417 51.6074 115.05 51.6074Z" fill="#1FC4CB"/>
<path fill-rule="evenodd" clip-rule="evenodd" d="M8.66376 88.1611C9.29598 88.1611 9.8085 88.6511 9.8085 89.2556V95.7593H16.2441C16.8422 95.7593 17.3271 96.2772 17.3271 96.9161C17.3271 97.5551 16.8422 98.073 16.2441 98.073H9.8085V104.578C9.80849 105.182 9.29598 105.672 8.66376 105.672C8.03155 105.672 7.51903 105.182 7.51903 104.578L7.51903 98.073H1.08294C0.484849 98.073 0 97.5551 0 96.9161C0 96.2772 0.484849 95.7593 1.08294 95.7593H7.51903V89.2556C7.51903 88.6511 8.03155 88.1611 8.66376 88.1611Z" fill="#1FC4CB"/>
<path d="M13.8237 48.7366C13.8237 51.5172 11.5952 53.7585 8.86198 53.7585C6.12871 53.7585 3.90023 51.5172 3.90023 48.7366C3.90023 45.956 6.12871 43.7147 8.86198 43.7147C11.5952 43.7147 13.8237 45.956 13.8237 48.7366Z" fill="white" stroke="#FEC673" stroke-width="1.41764"/>
<path d="M113.827 104.644C113.827 107.424 111.598 109.666 108.865 109.666C106.132 109.666 103.903 107.424 103.903 104.644C103.903 101.863 106.132 99.6219 108.865 99.6219C111.598 99.6219 113.827 101.863 113.827 104.644Z" fill="white" stroke="#FEC673" stroke-width="1.41764"/>
<path d="M81.9106 5.73074C81.9106 8.51134 79.6822 10.7527 76.9489 10.7527C74.2156 10.7527 71.9871 8.51134 71.9871 5.73074C71.9871 2.95014 74.2156 0.708822 76.9489 0.708822C79.6822 0.708822 81.9106 2.95014 81.9106 5.73074Z" fill="white" stroke="#FEC673" stroke-width="1.41764"/>
</g>
</svg>
